PathFileType	4	(X/Y/Z)	C:/Users/opensim2020/Desktop/walking_exp_matlab/subject06_walking21_straight_01_cyclic.trc	
DataRate	CameraRate	NumFrames	NumMarkers	Units	OrigDataRate	OrigDataStartFrame	OrigNumFrames	
100.00	100.00	6	44	mm	100.00	785	102	
Frame#	Time	LFHD			RFHD			LBHD			RBHD			C7			T10			CLAV			STRN			RBAK			LSHO			LUPA			LELB			LFRM			LWRA			LWRB			LFIN			RSHO			RUPA			RELB			RFRM			RWRA			RWRB			RFIN			LASI			RASI			LPSI			RPSI			LTHI			LKNE			LTIB			LANK			LHEE			LTOE			RTHI			RKNE			RTIB			RANK			RHEE			RTOE			*39			*40			*41			*42			*43			
		X1	Y1	Z1	X2	Y2	Z2	X3	Y3	Z3	X4	Y4	Z4	X5	Y5	Z5	X6	Y6	Z6	X7	Y7	Z7	X8	Y8	Z8	X9	Y9	Z9	X10	Y10	Z10	X11	Y11	Z11	X12	Y12	Z12	X13	Y13	Z13	X14	Y14	Z14	X15	Y15	Z15	X16	Y16	Z16	X17	Y17	Z17	X18	Y18	Z18	X19	Y19	Z19	X20	Y20	Z20	X21	Y21	Z21	X22	Y22	Z22	X23	Y23	Z23	X24	Y24	Z24	X25	Y25	Z25	X26	Y26	Z26	X27	Y27	Z27	X28	Y28	Z28	X29	Y29	Z29	X30	Y30	Z30	X31	Y31	Z31	X32	Y32	Z32	X33	Y33	Z33	X34	Y34	Z34	X35	Y35	Z35	X36	Y36	Z36	X37	Y37	Z37	X38	Y38	Z38	X39	Y39	Z39	X40	Y40	Z40	X41	Y41	Z41	X42	Y42	Z42	X43	Y43	Z43	X44	Y44	Z44	

26	0.250	-1030.81787	-665.55792	1661.76941	-901.17810	-675.63611	1643.84131	-1043.83215	-800.51117	1612.80420	-915.17352	-808.21063	1600.04407	-986.70630	-812.46710	1453.93469	-981.39911	-872.48969	1130.39319	-990.42889	-708.30475	1368.44568	-1000.10968	-682.87640	1191.18079	-902.99432	-894.21167	1289.74670	-1148.94910	-769.24323	1405.19568	-1221.61096	-794.79773	1204.54639	-1232.54309	-808.30634	1092.30786	-1257.52686	-783.37848	944.16150	-1221.70947	-713.81134	832.97186	-1253.10986	-777.59845	824.49335	-1261.12744	-730.02649	748.23450	-827.64545	-744.66730	1405.08215	-734.55225	-791.62982	1212.57727	-720.20972	-784.98608	1091.25500	-708.23224	-746.98853	978.01392	-752.51599	-660.17841	859.02448	-707.95880	-708.90881	846.19080	-713.47314	-655.54266	781.34906	-1099.64758	-715.62250	960.87689	-881.96790	-702.48651	964.10400	-1068.28357	-868.65228	992.48981	-901.28223	-853.43890	999.95239	-1162.07312	-713.15454	654.14917	-1138.21350	-655.51141	501.70355	-1125.07361	-769.73071	279.45404	-1085.68860	-834.77264	120.51590	-1033.91833	-871.07312	115.94572	-1105.13745	-713.29132	49.59006	-833.30902	-774.28339	632.44049	-860.19043	-778.09668	506.70218	-871.28369	-859.66986	249.49821	-926.23663	-895.06989	67.60049	-971.22882	-936.73309	45.50608	-923.56909	-744.74493	32.45041	-977.67987	-768.99518	1700.43091												 
27	0.260	-1030.87781	-654.19360	1660.35303	-901.50665	-664.36237	1642.69385	-1043.87512	-789.47113	1611.55884	-915.15753	-796.95123	1598.95581	-986.48126	-801.39252	1452.68567	-981.18994	-861.12341	1128.97253	-990.41083	-697.08667	1367.30310	-999.82715	-671.64624	1190.17200	-902.35016	-882.89557	1288.74927	-1148.87842	-758.89032	1403.76001	-1221.53284	-787.43536	1203.21362	-1232.20618	-802.91882	1091.49084	-1258.21277	-782.28357	942.85614	-1223.61804	-716.19067	829.02295	-1254.67969	-780.33691	823.07794	-1263.20166	-735.67999	745.02393	-827.66418	-733.21625	1404.02539	-733.97595	-778.63214	1211.54138	-719.32819	-771.22723	1090.41003	-707.67572	-731.38318	977.90637	-752.73578	-642.72784	860.68427	-708.12439	-690.85938	846.76129	-713.77368	-636.51672	783.05829	-1098.94312	-703.26233	960.42188	-881.34119	-691.23639	963.03180	-1068.55652	-856.52045	990.97040	-901.40997	-842.33044	998.42871	-1161.75940	-696.70215	654.54468	-1137.30884	-636.54865	503.15961	-1125.73645	-740.65979	275.05994	-1087.31116	-796.77460	112.43697	-1035.69385	-833.62097	105.78600	-1107.17249	-671.69641	48.38151	-833.91205	-766.02209	631.46875	-860.46094	-772.24835	505.65131	-871.51788	-857.12860	249.26901	-926.55371	-894.62885	67.82619	-971.55023	-936.51764	45.90935	-923.37799	-744.62091	32.27504	-977.86462	-757.75818	1699.27844												 
28	0.270	-1031.92712	-643.60791	1658.99231	-901.93256	-652.95514	1641.29907	-1044.36292	-778.54633	1609.91638	-915.20898	-785.61823	1597.65344	-986.36792	-790.20300	1451.22253	-981.08563	-849.72302	1127.44067	-990.51685	-685.91766	1365.85205	-999.60846	-660.22028	1188.86536	-901.84045	-871.53125	1287.44995	-1148.91504	-748.56134	1401.94861	-1220.82886	-779.59631	1201.81421	-1232.05371	-797.36353	1090.59460	-1258.77612	-781.14734	941.55048	-1226.04724	-717.27814	825.64301	-1256.05884	-782.93030	821.81903	-1265.09668	-741.29388	742.11871	-827.70270	-721.76691	1402.65723	-733.32574	-765.89838	1210.27893	-718.52380	-757.52557	1089.31409	-707.16650	-715.79700	977.55463	-752.94299	-625.47998	862.13135	-708.07159	-672.90472	847.23328	-714.26343	-617.19836	784.65491	-1098.23425	-690.76056	959.75140	-880.66290	-679.92621	961.97430	-1068.86304	-844.31964	989.17566	-901.72876	-831.04156	996.60931	-1161.41846	-680.49591	654.60687	-1136.44128	-618.04132	504.17725	-1126.85522	-711.27570	270.53387	-1088.82739	-758.19153	104.75368	-1036.89441	-793.93274	95.96696	-1108.84314	-629.79651	47.46877	-834.66974	-757.40588	630.36621	-860.63232	-766.23029	504.50256	-871.90515	-854.55750	249.08438	-926.89038	-894.02832	68.03201	-971.88062	-936.21344	46.32248	-923.13684	-744.30493	32.04939	-978.13190	-746.53754	1697.85962												 
29	0.280	-1032.53296	-632.59619	1657.25305	-902.43463	-641.58374	1639.72522	-1044.49353	-767.46381	1608.21875	-915.35541	-774.25220	1596.12158	-986.28070	-778.89630	1449.51538	-981.03467	-838.21283	1125.66992	-990.64636	-674.64014	1364.15808	-999.50623	-648.80707	1187.38123	-901.37842	-860.24951	1285.89063	-1148.93372	-737.91638	1400.21033	-1220.87305	-771.96393	1200.45166	-1231.88074	-791.58826	1089.53784	-1259.26379	-779.76709	940.33398	-1227.25647	-720.17975	822.17651	-1257.19055	-785.35553	820.73016	-1266.83081	-746.85394	739.52112	-827.79114	-710.24567	1401.21240	-732.84839	-752.90448	1208.79431	-717.79388	-743.80817	1088.04309	-706.68323	-700.34393	977.03082	-753.18127	-608.27661	863.37158	-708.03528	-655.12665	847.59546	-714.55701	-598.41132	786.03149	-1097.62634	-678.11957	958.80792	-879.90222	-668.47498	960.65045	-1069.25488	-831.89545	987.13831	-902.05676	-819.60724	994.48743	-1161.19373	-664.51202	654.33502	-1135.50818	-599.74792	504.85535	-1127.43872	-681.49731	266.03955	-1090.23450	-718.67072	97.65385	-1038.38647	-754.51807	86.83533	-1109.80530	-587.75934	47.17224	-835.47412	-748.69580	629.00751	-860.84058	-760.21014	503.33047	-872.16681	-851.59113	248.83444	-927.05865	-893.26526	68.41353	-972.18671	-935.86951	47.00331	-922.91687	-743.93341	31.76070	-978.46436	-735.27008	1696.20520												 
30	0.290	-1033.24976	-621.47003	1655.28455	-903.03619	-630.04419	1637.96265	-1044.70923	-756.35248	1606.23657	-915.56323	-762.76172	1594.31689	-986.23853	-767.82001	1447.62708	-981.05939	-826.62891	1123.60107	-991.03162	-663.32977	1362.24109	-999.43799	-637.34326	1185.63062	-901.04980	-848.69531	1283.92017	-1149.00305	-727.31348	1398.19043	-1220.81409	-764.20093	1198.86572	-1231.65417	-785.69257	1088.38257	-1259.64575	-778.29071	939.10645	-1229.63147	-720.11530	819.25360	-1258.15503	-787.65656	819.87494	-1268.33521	-751.90320	737.23370	-827.89978	-698.67761	1399.51990	-732.37036	-740.18347	1207.07690	-717.05609	-730.13440	1086.55859	-706.23975	-684.97699	976.37115	-753.50378	-591.31158	864.30798	-707.81171	-637.56769	847.77429	-714.88855	-579.92725	787.12683	-1097.12646	-665.33978	957.56091	-879.39886	-656.82977	958.96625	-1069.69092	-819.32849	984.91284	-902.36926	-807.97247	992.24658	-1160.97388	-649.37354	653.37811	-1135.00525	-582.39221	505.02457	-1128.25696	-651.71411	261.54041	-1091.65369	-679.04785	91.20370	-1039.85999	-714.54578	78.63119	-1110.30396	-545.93365	46.90565	-836.00305	-739.48920	627.47284	-861.22943	-753.76062	502.08847	-872.34082	-848.19037	248.45592	-927.64429	-892.51154	68.76179	-972.58875	-935.47919	47.73510	-922.76068	-743.49695	31.50893	-978.86749	-723.98621	1694.34094												 
31	0.300	-1033.96936	-610.27789	1653.05420	-903.85059	-618.35931	1636.06250	-1044.52332	-744.99829	1604.38599	-915.75812	-751.29956	1592.38660	-986.29498	-756.43188	1445.35498	-981.16174	-814.85931	1121.22339	-991.07050	-652.01855	1360.21973	-999.45056	-625.64178	1183.74438	-900.78552	-837.01080	1281.57910	-1149.07996	-716.57385	1395.92676	-1220.61670	-756.25165	1197.08606	-1231.44934	-779.73706	1087.13269	-1260.41199	-776.88165	937.92352	-1230.55249	-721.96991	816.61426	-1258.95825	-789.50647	819.01184	-1269.82263	-756.58527	735.25476	-828.03424	-687.11920	1397.60046	-732.12201	-727.30896	1205.22693	-716.46674	-716.48462	1084.85522	-705.89209	-669.68091	975.44275	-753.78131	-574.57288	865.03864	-707.99457	-620.38489	847.65265	-715.22827	-561.79321	788.02869	-1096.67395	-652.60016	955.88568	-878.47650	-645.47003	957.40216	-1070.28638	-806.62488	982.32245	-903.15662	-795.61859	989.55035	-1161.06213	-634.51471	651.85156	-1134.77197	-565.83630	504.71582	-1129.21936	-621.95001	257.24298	-1092.94617	-639.10919	85.51875	-1041.44983	-674.55475	71.65451	-1109.93555	-503.36536	47.54650	-836.60468	-730.30627	625.85669	-861.78058	-746.74072	500.60208	-872.83459	-844.78754	248.14752	-928.13831	-891.56470	69.18279	-973.20020	-934.85773	48.43714	-922.74597	-743.03912	31.21441	-979.40649	-712.60297	1692.18506												 
